<?xml version="1.0" encoding="iso-8859-1"?>
<!-- Generator: Adobe Illustrator 23.0.3, SVG Export Plug-In . SVG Version: 6.00 Build 0)  -->
<svg version="1.1" id="Calque_1" xmlns="http://www.w3.org/2000/svg" xmlns:xlink="http://www.w3.org/1999/xlink" x="0px" y="0px"
	 viewBox="0 0 1001.963 709.855" style="enable-background:new 0 0 1001.963 709.855;" xml:space="preserve">
<g>
	<g>
		<defs>
			
				<rect id="XMLID_19_" x="147.444" y="-145.072" transform="matrix(-0.0028 1 -1 -0.0028 857.3016 -145.0646)" width="707.076" height="1000"/>
		</defs>
		<clipPath id="XMLID_2_">
			<use xlink:href="#XMLID_19_"  style="overflow:visible;"/>
		</clipPath>
		
			<rect id="XMLID_20_" x="147.444" y="-145.072" transform="matrix(-0.0028 1 -1 -0.0028 857.3016 -145.0646)" style="clip-path:url(#XMLID_2_);fill:#FFFFFF;" width="707.076" height="1000"/>
		<g style="clip-path:url(#XMLID_2_);">
			<g>
				
					<rect x="897.274" y="276.834" transform="matrix(0.0028 -1 1 0.0028 618.1127 1192.7979)" style="fill:#020203;" width="19.685" height="19.294"/>
				
					<rect x="962.814" y="245.179" transform="matrix(0.0028 -1 1 0.0028 715.0723 1220.5721)" style="fill:#020203;" width="13.416" height="13.15"/>
				
					<rect x="961.333" y="328.68" transform="matrix(0.0028 -1 1 0.0028 630.2194 1316.8634)" style="fill:#020203;" width="28.086" height="27.529"/>
				<path style="fill:#020203;" d="M971.819,438.285l-38.478-0.107l-0.109,39.257l38.478,0.107L971.819,438.285z M962.118,467.701
					l-19.239-0.054l0.055-19.628l19.239,0.054L962.118,467.701z"/>
				
					<rect x="942.711" y="448.24" transform="matrix(0.0028 -1 1 0.0028 492.0173 1409.1083)" style="fill:#FFFFFF;" width="19.628" height="19.239"/>
			</g>
			<g>
				<g>
					<g>
						
							<rect x="934.635" y="641.908" transform="matrix(0.0028 -1 1 0.0028 290.3203 1596.9188)" style="fill:#020203;" width="22.418" height="21.974"/>
						
							<rect x="895.008" y="677.714" transform="matrix(0.0028 -1 1 0.0028 214.9529 1587.8182)" style="fill:#020203;" width="17.179" height="16.838"/>
						<g>
							
								<rect x="934.745" y="676.059" transform="matrix(1 0.0028 -0.0028 1 1.9323 -2.6447)" style="fill:#020203;" width="33.676" height="34.357"/>
							
								<rect x="968.421" y="676.153" transform="matrix(1 0.0028 -0.0028 1 1.9327 -2.7383)" style="fill:#020203;" width="33.676" height="34.357"/>
							
								<rect x="968.516" y="641.796" transform="matrix(1 0.0028 -0.0028 1 1.8371 -2.7387)" style="fill:#020203;" width="33.676" height="34.357"/>
						</g>
					</g>
					
						<rect x="869.815" y="615.987" transform="matrix(0.0028 -1 1 0.0028 251.6306 1509.5731)" style="fill:#020203;" width="25.778" height="25.267"/>
					
						<rect x="852.608" y="578.472" transform="matrix(0.0028 -1 1 0.0028 271.8609 1440.4896)" style="fill:#020203;" width="11.148" height="10.926"/>
					<g>
						
							<rect x="935.143" y="587.849" transform="matrix(0.0028 -1 1 0.0028 344.9575 1551.7684)" style="fill:#020203;" width="30.763" height="30.152"/>
						
							<rect x="896.116" y="527.66" transform="matrix(0.0028 -1 1 0.0028 366.0789 1435.4568)" style="fill:#020203;" width="13.303" height="13.039"/>
					</g>
				</g>
			</g>
		</g>
		<g style="clip-path:url(#XMLID_2_);">
			<g>
				<g>
					<path style="fill:#020203;" d="M144.233,193.511c0.006-2.017,1.645-3.648,3.663-3.642c2.017,0.006,3.648,1.645,3.642,3.662
						c-0.006,2.017-1.645,3.648-3.663,3.642C145.858,197.168,144.227,195.528,144.233,193.511z"/>
					<path style="fill:#020203;" d="M116.729,193.435c0.006-2.017,1.645-3.648,3.663-3.642c2.017,0.006,3.648,1.645,3.642,3.662
						c-0.006,2.017-1.645,3.648-3.663,3.642C118.354,197.092,116.723,195.452,116.729,193.435z"/>
					<path style="fill:#020203;" d="M89.225,193.358c0.006-2.017,1.645-3.648,3.663-3.642c2.017,0.006,3.648,1.645,3.642,3.662
						c-0.006,2.017-1.645,3.648-3.663,3.642C90.85,197.015,89.22,195.375,89.225,193.358z"/>
					<path style="fill:#020203;" d="M61.721,193.282c0.006-2.017,1.645-3.648,3.663-3.642c2.017,0.006,3.648,1.645,3.642,3.662
						c-0.006,2.017-1.645,3.648-3.663,3.642C63.346,196.939,61.716,195.299,61.721,193.282z"/>
					<path style="fill:#020203;" d="M34.218,193.205c0.006-2.017,1.645-3.648,3.663-3.642c2.017,0.006,3.648,1.645,3.642,3.662
						c-0.006,2.017-1.645,3.648-3.663,3.642C35.843,196.862,34.212,195.222,34.218,193.205z"/>
					<path style="fill:#020203;" d="M6.714,193.129c0.006-2.017,1.645-3.648,3.663-3.642s3.648,1.645,3.642,3.662
						c-0.006,2.017-1.645,3.648-3.663,3.642S6.708,195.146,6.714,193.129z"/>
				</g>
				<g>
					<path style="fill:#020203;" d="M144.347,152.333c0.006-2.017,1.645-3.648,3.663-3.642c2.017,0.006,3.648,1.645,3.642,3.663
						c-0.006,2.017-1.645,3.648-3.663,3.642C145.972,155.99,144.342,154.35,144.347,152.333z"/>
					<path style="fill:#020203;" d="M116.844,152.257c0.006-2.017,1.645-3.648,3.663-3.642c2.017,0.006,3.648,1.645,3.642,3.663
						c-0.006,2.017-1.645,3.648-3.663,3.642C118.469,155.914,116.838,154.274,116.844,152.257z"/>
					<path style="fill:#020203;" d="M89.34,152.18c0.006-2.017,1.645-3.648,3.663-3.642c2.017,0.006,3.648,1.645,3.642,3.663
						c-0.006,2.017-1.645,3.648-3.663,3.642C90.965,155.837,89.334,154.197,89.34,152.18z"/>
					<path style="fill:#020203;" d="M61.836,152.104c0.006-2.017,1.645-3.648,3.663-3.642c2.017,0.006,3.648,1.645,3.642,3.663
						c-0.006,2.017-1.645,3.648-3.663,3.642C63.461,155.761,61.83,154.121,61.836,152.104z"/>
					<path style="fill:#020203;" d="M34.332,152.027c0.006-2.017,1.645-3.648,3.663-3.642c2.017,0.006,3.648,1.645,3.642,3.663
						c-0.006,2.017-1.645,3.648-3.663,3.642C35.957,155.684,34.327,154.044,34.332,152.027z"/>
					<path style="fill:#020203;" d="M6.828,151.951c0.006-2.017,1.645-3.648,3.663-3.642s3.648,1.645,3.642,3.663
						c-0.006,2.017-1.645,3.648-3.663,3.642S6.823,153.968,6.828,151.951z"/>
				</g>
				<g>
					<circle style="fill:#020203;" cx="148.114" cy="111.165" r="3.652"/>
					<circle style="fill:#020203;" cx="120.611" cy="111.089" r="3.652"/>
					<circle style="fill:#020203;" cx="93.107" cy="111.012" r="3.652"/>
					<circle style="fill:#020203;" cx="65.603" cy="110.936" r="3.652"/>
					<circle style="fill:#020203;" cx="38.099" cy="110.859" r="3.652"/>
					<circle style="fill:#020203;" cx="10.595" cy="110.783" r="3.652"/>
				</g>
			</g>
			<g>
				<path style="fill:#020203;" d="M-2.931,649.503l1.219-438.184l378.869,220.148L-2.931,649.503z M0.768,215.641l-1.195,429.553
					l372.602-213.741L0.768,215.641z"/>
			</g>
			<g>
				<polygon style="fill:#020203;" points="56.958,613.649 -1.491,579.686 -1.679,647.286 				"/>
			</g>
			<g>
				
					<rect x="-34.473" y="342.777" transform="matrix(0.8667 -0.4988 0.4988 0.8667 -142.9106 153.243)" width="499.502" height="2.491"/>
			</g>
			<g>
				
					<rect x="158.89" y="384.543" transform="matrix(0.7091 -0.7051 0.7051 0.7091 -281.0842 248.1103)" style="fill:#020203;" width="2.491" height="160.301"/>
			</g>
			<g>
				
					<rect x="128.633" y="403.272" transform="matrix(0.7091 -0.7051 0.7051 0.7091 -302.7828 232.0957)" style="fill:#020203;" width="2.491" height="159.421"/>
			</g>
			<g>
				
					<rect x="97.759" y="419.25" transform="matrix(0.7091 -0.7052 0.7052 0.7091 -323.3505 215.1135)" style="fill:#020203;" width="2.491" height="160.301"/>
			</g>
			<g>
				<path style="fill:#020203;" d="M421.688,211.697L319.397,108.835c28.404-28.246,74.33-28.119,102.577,0.285
					C393.569,137.366,393.441,183.292,421.688,211.697z"/>
				<g>
					<path style="fill:#CBC9C9;" d="M421.688,211.697c-28.247-28.405-28.118-74.331,0.285-102.577
						C450.22,137.524,450.092,183.45,421.688,211.697z"/>
					<path style="fill:#1D1D1C;" d="M399.697,160.346c0.052-18.81,7.265-37.602,21.625-51.883l0.655-0.652l0.652,0.655
						c28.561,28.72,28.431,75.324-0.289,103.885l-0.655,0.652l-0.652-0.655C406.752,197.988,399.645,179.158,399.697,160.346z
						 M421.97,110.435c-27.127,27.673-27.247,72.122-0.278,99.945C448.817,182.707,448.941,138.259,421.97,110.435z"/>
				</g>
			</g>
			<g>
				<g>
					<g>
						<path style="fill:#020203;" d="M731.097,70.969l0.015,0.92l-252.917,4.222l-0.015-0.92c-0.005-0.318-0.005-0.635-0.006-0.951
							l-0.004-1.055l0.472-0.27L669.795-36.72l0.503,0.31C707.631-13.376,730.359,26.766,731.097,70.969z M480.098,74.238
							l249.056-4.157c-1.02-43.026-23.165-82.043-59.4-104.633L480.098,74.224L480.098,74.238L480.098,74.238z"/>
					</g>
					<g>
						<path style="fill:#CBC9C9;" d="M479.135,73.703L669.776-35.637c-19.58-12.081-42.651-18.883-67.261-18.473
							C533.69-52.961,478.753,4.124,479.135,73.703z"/>
						<path style="fill:#020203;" d="M480.099,72.078L667.945-35.659c-19.76-11.858-42.344-17.915-65.414-17.53
							c-33.002,0.551-63.883,14.028-86.951,37.949C492.888,8.288,480.324,39.243,480.099,72.078z M671.597-35.609l-1.328,0.761
							L478.183,75.322l-0.009-1.613c-0.186-33.905,12.596-65.938,35.993-90.198c23.43-24.294,54.8-37.982,88.334-38.542
							c23.964-0.4,47.409,6.039,67.798,18.62L671.597-35.609z"/>
					</g>
				</g>
				
					<ellipse transform="matrix(0.0028 -1 1 0.0028 516.5927 669.3201)" style="fill:#020203;" cx="593.889" cy="75.644" rx="22.723" ry="22.723"/>
			</g>
			<g>
				<polygon style="fill:#1D1D1C;" points="481.614,268.199 284.196,379.512 285.569,381.949 483.745,270.209 				"/>
			</g>
			<g>
				
					<rect x="355.238" y="-30.314" transform="matrix(0.7052 -0.709 0.709 0.7052 1.7145 295.8755)" style="fill:#1D1D1C;" width="2.798" height="352.38"/>
			</g>
			
				<linearGradient id="SVGID_1_" gradientUnits="userSpaceOnUse" x1="410.2268" y1="652.9843" x2="566.9937" y2="743.4937" gradientTransform="matrix(-0.0028 1 -1 -0.0028 857.3016 -145.0646)">
				<stop  offset="0.1172" style="stop-color:#FFFFFF"/>
				<stop  offset="1" style="stop-color:#1D1D1C"/>
			</linearGradient>
			<polygon style="opacity:0.46;fill:url(#SVGID_1_);" points="374.121,429.801 -2.268,213.975 -3.985,159.224 379.685,392.32 			
				"/>
			<path style="fill:#020203;" d="M269.55-0.408L0.178-1.155c0,0,38.77,66.815,134.5,67.082
				C207.14,66.128,245.615,29.135,269.55-0.408z"/>
			<g>
				
					<rect x="282.949" y="569.417" transform="matrix(0.0028 -1 1 0.0028 -287.2868 874.9807)" style="fill:#020203;" width="24.234" height="24.234"/>
				
					<rect x="243.623" y="651.416" transform="matrix(0.0028 -1 1 0.0028 -408.4915 909.7198)" style="fill:#020203;" width="16.517" height="16.517"/>
				
					<rect x="346.199" y="650.365" transform="matrix(0.0028 -1 1 0.0028 -305.1747 1029.283)" style="fill:#020203;" width="34.577" height="34.577"/>
				<path style="fill:#020203;" d="M529.829,663.984l0.134-48.329l-48.329-0.134L481.5,663.85L529.829,663.984z M493.616,651.802
					l0.067-24.165l24.165,0.067l-0.067,24.165L493.616,651.802z"/>
				
					<rect x="493.65" y="627.671" transform="matrix(0.0028 -1 1 0.0028 -135.4252 1143.7035)" style="fill:#FFFFFF;" width="24.165" height="24.165"/>
			</g>
			<g>
				<g>
					<g>
						<polygon style="fill:#020203;" points="401.622,478.328 419.306,456.005 401.746,433.582 419.431,411.256 401.871,388.833 
							419.54,366.528 402.371,346.385 403.504,345.42 421.465,366.494 403.765,388.838 421.325,411.261 403.64,433.587 
							421.201,456.01 403.516,478.333 421.076,500.756 403.391,523.082 420.952,545.507 403.267,567.832 420.827,590.26 
							402.779,613.048 401.612,612.124 418.933,590.254 401.373,567.827 419.057,545.501 401.497,523.076 419.182,500.751 						"/>
					</g>
				</g>
				<g>
					<g>
						<polygon style="fill:#020203;" points="442.13,478.44 459.815,456.117 442.255,433.694 459.94,411.369 442.379,388.945 
							460.048,366.641 442.88,346.498 444.012,345.533 461.974,366.607 444.274,388.951 461.834,411.374 444.149,433.7 
							461.71,456.123 444.025,478.445 461.585,500.869 443.9,523.195 461.461,545.619 443.776,567.945 461.336,590.373 
							443.287,613.161 442.121,612.236 459.442,590.367 441.881,567.94 459.566,545.614 442.006,523.189 459.691,500.864 						"/>
					</g>
				</g>
			</g>
		</g>
	</g>
</g>
</svg>
